<svg width="50" height="50" viewBox="0 0 50 50" fill="none" xmlns="http://www.w3.org/2000/svg">
<path d="M25.0013 4.16797C30.6617 4.16797 31.368 4.1888 33.5888 4.29297C35.8076 4.39714 37.318 4.74505 38.6471 5.26172C40.0221 5.79089 41.1805 6.50755 42.3388 7.6638C43.3982 8.70525 44.2179 9.96503 44.7409 11.3555C45.2555 12.6826 45.6055 14.1951 45.7096 16.4138C45.8076 18.6346 45.8346 19.3409 45.8346 25.0013C45.8346 30.6617 45.8138 31.368 45.7096 33.5888C45.6055 35.8076 45.2555 37.318 44.7409 38.6471C44.2194 40.0383 43.3995 41.2984 42.3388 42.3388C41.2971 43.3978 40.0374 44.2175 38.6471 44.7409C37.3201 45.2555 35.8076 45.6055 33.5888 45.7096C31.368 45.8076 30.6617 45.8346 25.0013 45.8346C19.3409 45.8346 18.6346 45.8138 16.4138 45.7096C14.1951 45.6055 12.6846 45.2555 11.3555 44.7409C9.96448 44.219 8.70448 43.3991 7.6638 42.3388C6.60423 41.2975 5.78449 40.0377 5.26172 38.6471C4.74505 37.3201 4.39714 35.8076 4.29297 33.5888C4.19505 31.368 4.16797 30.6617 4.16797 25.0013C4.16797 19.3409 4.1888 18.6346 4.29297 16.4138C4.39714 14.193 4.74505 12.6846 5.26172 11.3555C5.78304 9.96418 6.60298 8.70405 7.6638 7.6638C8.70478 6.60387 9.96469 5.78407 11.3555 5.26172C12.6846 4.74505 14.193 4.39714 16.4138 4.29297C18.6346 4.19505 19.3409 4.16797 25.0013 4.16797ZM25.0013 14.5846C22.2386 14.5846 19.5891 15.6821 17.6356 17.6356C15.6821 19.5891 14.5846 22.2386 14.5846 25.0013C14.5846 27.764 15.6821 30.4135 17.6356 32.367C19.5891 34.3205 22.2386 35.418 25.0013 35.418C27.764 35.418 30.4135 34.3205 32.367 32.367C34.3205 30.4135 35.418 27.764 35.418 25.0013C35.418 22.2386 34.3205 19.5891 32.367 17.6356C30.4135 15.6821 27.764 14.5846 25.0013 14.5846ZM38.543 14.0638C38.543 13.3731 38.2686 12.7108 37.7802 12.2224C37.2919 11.734 36.6295 11.4596 35.9388 11.4596C35.2481 11.4596 34.5858 11.734 34.0974 12.2224C33.609 12.7108 33.3346 13.3731 33.3346 14.0638C33.3346 14.7545 33.609 15.4169 34.0974 15.9052C34.5858 16.3936 35.2481 16.668 35.9388 16.668C36.6295 16.668 37.2919 16.3936 37.7802 15.9052C38.2686 15.4169 38.543 14.7545 38.543 14.0638ZM25.0013 18.7513C26.6589 18.7513 28.2486 19.4098 29.4207 20.5819C30.5928 21.754 31.2513 23.3437 31.2513 25.0013C31.2513 26.6589 30.5928 28.2486 29.4207 29.4207C28.2486 30.5928 26.6589 31.2513 25.0013 31.2513C23.3437 31.2513 21.754 30.5928 20.5819 29.4207C19.4098 28.2486 18.7513 26.6589 18.7513 25.0013C18.7513 23.3437 19.4098 21.754 20.5819 20.5819C21.754 19.4098 23.3437 18.7513 25.0013 18.7513Z" fill="black"/>
</svg>
