<svg width="50" height="50" viewBox="0 0 50 50" fill="none" xmlns="http://www.w3.org/2000/svg">
<g clip-path="url(#clip0_157_190)">
<path d="M25.0013 45.8337C13.4951 45.8337 4.16797 36.5066 4.16797 25.0003C4.16797 13.4941 13.4951 4.16699 25.0013 4.16699C36.5076 4.16699 45.8346 13.4941 45.8346 25.0003C45.8346 36.5066 36.5076 45.8337 25.0013 45.8337ZM18.5221 27.4378L18.5492 27.4232L20.3617 33.4024C20.5951 34.0503 20.9159 34.167 21.3055 34.1128C21.6971 34.0607 21.9034 33.8503 22.1596 33.6045L24.6346 31.2128L29.9471 35.1462C30.918 35.6816 31.6159 35.4045 31.8576 34.2462L35.3096 17.9503C35.6909 16.4337 35.0242 15.8253 33.8471 16.3087L13.5701 24.142C12.1867 24.6962 12.1951 25.4712 13.3201 25.8149L18.5221 27.4399V27.4378Z" fill="black"/>
</g>
<defs>
<clipPath id="clip0_157_190">
<rect width="50" height="50" fill="white"/>
</clipPath>
</defs>
</svg>
