<svg width="173" height="107" viewBox="0 0 173 107" fill="none" xmlns="http://www.w3.org/2000/svg">
<path d="M6.85109 52.9089H0V11.1527H6.85109V52.9089Z" fill="#CFF928"/>
<path d="M16.5533 52.9089V11.1527V0L37.6381 32.5328L58.3685 1.23044V11.1527V52.9089H51.5765V20.3662L37.6381 59.0611L23.3453 20.3662V52.9089H16.5533Z" fill="#CFF928"/>
<path d="M68.0587 11.1527H83.3555C85.7573 11.1527 87.9032 11.4283 89.7932 11.9795C91.7225 12.4914 93.3565 13.3182 94.6952 14.4601C96.0733 15.6019 97.1167 17.0785 97.8255 18.8897C98.5736 20.6615 98.9476 22.8074 98.9476 25.3273C98.9476 27.6504 98.5539 29.7175 97.7664 31.5287C97.0183 33.3399 95.9355 34.8559 94.5181 36.0764C93.14 37.297 91.4863 38.2223 89.5569 38.8523C87.6276 39.4823 85.4817 39.7973 83.1193 39.7973H74.9098V52.9089H68.0587V11.1527ZM82.7649 33.7731C85.403 33.7731 87.5882 33.1234 89.3207 31.824C91.0925 30.4853 92.0178 28.4182 92.0965 25.6226C92.0965 22.6696 91.3288 20.5434 89.7932 19.244C88.297 17.9447 86.092 17.295 83.1783 17.295H74.9098V33.7731H82.7649Z" fill="#CFF928"/>
<path d="M106.414 11.1527H135.413V17.295H113.265V29.1663H132.873V35.3677H113.265V46.8256H135.413V52.9089H106.414V11.1527Z" fill="#CFF928"/>
<path d="M151.726 52.9089V17.295H138.496V11.1527H171.866V17.295H158.577V52.9089H151.726Z" fill="#CFF928"/>
<path d="M9.5836 78.1271C9.13665 78.1271 8.67729 78.1644 8.20551 78.2389C7.75856 78.2885 7.31161 78.4127 6.86466 78.6113C6.44254 78.7851 6.07009 79.0583 5.74729 79.4307C5.44932 79.7784 5.28793 80.2501 5.2631 80.8461C5.2631 81.6903 5.57348 82.3235 6.19424 82.7456C6.83983 83.1677 7.67165 83.4781 8.6897 83.6767C9.11182 83.7761 9.57119 83.8754 10.0678 83.9747C10.5644 84.0492 11.0486 84.1361 11.5204 84.2354C12.017 84.3099 12.4764 84.3968 12.8985 84.4962C13.3454 84.5955 13.7179 84.6948 14.0158 84.7941C16.3996 85.539 17.5914 87.1406 17.5914 89.5988C17.5666 90.7907 17.3059 91.7591 16.8093 92.504C16.3375 93.2241 15.7291 93.7952 14.9842 94.2173C14.2641 94.6394 13.4323 94.9374 12.4888 95.1112C11.57 95.285 10.6513 95.3719 9.73258 95.3719C8.83869 95.3719 7.93237 95.285 7.01365 95.1112C6.09492 94.9374 5.25068 94.6394 4.48094 94.2173C3.73602 93.7703 3.09043 93.1992 2.54416 92.504C2.02272 91.7839 1.6875 90.89 1.53852 89.8223H4.74165C4.9403 90.4182 5.25068 90.89 5.6728 91.2376C6.09492 91.5853 6.54187 91.8584 7.01365 92.057C7.51026 92.2557 7.96962 92.3923 8.39174 92.4667C8.83869 92.5412 9.3353 92.5785 9.88157 92.5785C10.2789 92.5785 10.7382 92.5537 11.2597 92.504C11.7811 92.4543 12.2777 92.3426 12.7495 92.1688C13.2213 91.9701 13.6186 91.6846 13.9414 91.3121C14.2641 90.9397 14.4255 90.4182 14.4255 89.7478C14.4255 89.0029 14.1772 88.4442 13.6806 88.0717C13.2089 87.6993 12.5508 87.4262 11.7066 87.2523C11.1107 87.1282 10.4899 87.0165 9.84432 86.9171C9.22356 86.793 8.59038 86.6688 7.94479 86.5447C7.32403 86.3957 6.71568 86.2343 6.11975 86.0605C5.52382 85.8618 4.96513 85.6011 4.44369 85.2783C3.74844 84.8562 3.18975 84.2851 2.76763 83.565C2.34551 82.8449 2.13445 81.9634 2.13445 80.9206C2.18411 79.828 2.43242 78.9341 2.87937 78.2389C3.32632 77.5188 3.89742 76.9353 4.59267 76.4883C5.33759 76.0414 6.13216 75.731 6.9764 75.5572C7.82064 75.3834 8.71453 75.2965 9.65809 75.2965C11.6694 75.2965 13.2709 75.731 14.4628 76.6001C15.1829 77.0967 15.7416 77.6926 16.1389 78.3879C16.5361 79.0831 16.7844 79.8156 16.8838 80.5854H13.9414C13.7675 79.8653 13.2958 79.2818 12.526 78.8348C11.7563 78.3879 10.7755 78.152 9.5836 78.1271ZM38.2922 102.225V75.5199H41.3091L41.4581 78.4623C42.1285 77.4443 43.0348 76.6745 44.177 76.1531C45.3441 75.6068 46.598 75.3213 47.9389 75.2965C49.4535 75.2965 50.7323 75.5572 51.7752 76.0786C52.8429 76.5752 53.7244 77.2829 54.4196 78.2016C55.1397 79.0955 55.6736 80.1632 56.0212 81.4048C56.3688 82.6215 56.5426 83.9375 56.5426 85.3528C56.5426 86.793 56.3688 88.1214 56.0212 89.3381C55.6736 90.5548 55.1397 91.6101 54.4196 92.504C53.6995 93.3979 52.7932 94.1056 51.7007 94.627C50.6081 95.1236 49.3045 95.3719 47.7899 95.3719C46.3 95.3719 45.0337 95.136 43.9908 94.6642C42.9479 94.1925 42.1037 93.5345 41.4581 92.6902V102.225H38.2922ZM47.5292 92.5785C48.5969 92.5785 49.4908 92.3923 50.2108 92.0198C50.9558 91.6225 51.5517 91.1011 51.9986 90.4555C52.4704 89.7851 52.8056 89.0153 53.0043 88.1462C53.2278 87.2772 53.3519 86.346 53.3767 85.3528C53.3767 84.3596 53.265 83.4284 53.0415 82.5594C52.8429 81.6655 52.5077 80.8957 52.0359 80.2501C51.5641 79.6045 50.9433 79.0955 50.1736 78.7231C49.4287 78.3258 48.5224 78.1271 47.4547 78.1271C46.1883 78.1271 45.0958 78.4748 44.177 79.17C43.2583 79.8404 42.5631 80.6971 42.0913 81.74C41.8181 82.3111 41.6319 82.907 41.5326 83.5278C41.4333 84.1237 41.3836 84.7445 41.3836 85.3901C41.3836 86.135 41.4333 86.8302 41.5326 87.4758C41.6319 88.0966 41.8181 88.6925 42.0913 89.2636C42.5631 90.2072 43.2459 91.0017 44.1398 91.6473C45.0585 92.2681 46.1883 92.5785 47.5292 92.5785ZM90.4555 92.653C90.0333 93.2241 89.5491 93.6834 89.0029 94.0311C88.4566 94.3787 87.8855 94.6518 87.2896 94.8505C86.7185 95.0491 86.1349 95.1857 85.539 95.2602C84.9679 95.3347 84.3968 95.3719 83.8257 95.3719C82.907 95.3719 82.0379 95.2602 81.2185 95.0367C80.3991 94.8132 79.6542 94.4532 78.9838 93.9566C78.3382 93.46 77.8167 92.8392 77.4194 92.0943C77.047 91.3494 76.8608 90.5051 76.8608 89.5616C76.8608 88.4442 77.0594 87.5131 77.4567 86.7681C77.8788 85.9984 78.4375 85.3776 79.1327 84.9059C79.828 84.4341 80.6226 84.1113 81.5165 83.9375C82.4352 83.7388 83.4036 83.6395 84.4216 83.6395H90.1947C90.1947 81.9759 89.8347 80.6598 89.1146 79.6915C88.3945 78.6982 87.1778 78.1768 85.4645 78.1271C84.4216 78.1271 83.5029 78.3009 82.7083 78.6486C81.9138 78.9962 81.3675 79.5673 81.0695 80.3619H77.6802C77.854 79.468 78.2016 78.7107 78.723 78.0899C79.2445 77.4443 79.8652 76.9229 80.5853 76.5256C81.3054 76.1034 82.0876 75.7931 82.9318 75.5944C83.776 75.3958 84.6203 75.2965 85.4645 75.2965C86.9295 75.2965 88.1586 75.5448 89.1518 76.0414C90.1699 76.5132 90.9893 77.1463 91.6101 77.9409C92.2308 78.7107 92.6654 79.6542 92.9137 80.7716C93.162 81.889 93.2861 83.1429 93.2861 84.5334V95.1484H90.6417L90.4555 92.653ZM86.7309 86.284C86.1349 86.284 85.4397 86.2964 84.6451 86.3212C83.8754 86.3212 83.1305 86.3957 82.4104 86.5447C81.6903 86.6937 81.1068 87.004 80.6598 87.4758C80.2377 87.9476 80.0266 88.5684 80.0266 89.3381C80.0266 89.9092 80.1384 90.3934 80.3619 90.7907C80.5853 91.188 80.8833 91.5232 81.2558 91.7963C81.653 92.0695 82.1 92.2681 82.5966 92.3923C83.0932 92.5164 83.6022 92.5785 84.1237 92.5785C85.986 92.5785 87.451 92.1315 88.5187 91.2376C89.6112 90.3189 90.1699 88.9905 90.1947 87.2523V86.284H86.7309ZM123.332 95.3719C121.767 95.3719 120.414 95.1236 119.272 94.627C118.13 94.1304 117.186 93.4351 116.441 92.5412C115.696 91.6473 115.138 90.592 114.765 89.3753C114.393 88.1587 114.207 86.8302 114.207 85.3901C114.207 83.9995 114.405 82.6959 114.803 81.4793C115.2 80.2377 115.783 79.17 116.553 78.2761C117.323 77.3574 118.291 76.6373 119.458 76.1159C120.625 75.5696 122.041 75.2965 123.704 75.2965C124.697 75.2965 125.579 75.4082 126.349 75.6317C127.118 75.8303 127.839 76.1655 128.509 76.6373C129.204 77.0843 129.8 77.6802 130.297 78.4251C130.793 79.17 131.153 80.0763 131.377 81.144H128.136C127.764 80.0515 127.168 79.2693 126.349 78.7976C125.554 78.3258 124.611 78.1023 123.518 78.1271C122.45 78.1271 121.507 78.3382 120.687 78.7603C119.893 79.1576 119.247 79.6915 118.751 80.3619C118.279 81.0323 117.931 81.8145 117.708 82.7084C117.484 83.5774 117.372 84.4713 117.372 85.3901C117.372 86.3584 117.484 87.2772 117.708 88.1462C117.956 89.0153 118.316 89.7851 118.788 90.4555C119.284 91.1011 119.918 91.6225 120.687 92.0198C121.457 92.3923 122.376 92.5785 123.444 92.5785C123.965 92.5785 124.474 92.5288 124.971 92.4295C125.492 92.3302 125.964 92.1688 126.386 91.9453C126.833 91.697 127.218 91.3742 127.541 90.9769C127.863 90.5796 128.099 90.0954 128.248 89.5243H131.526C131.327 90.5424 130.967 91.4239 130.446 92.1688C129.949 92.8889 129.328 93.4972 128.583 93.9938C127.839 94.4656 127.019 94.8132 126.125 95.0367C125.231 95.2602 124.3 95.3719 123.332 95.3719ZM154.757 86.5074C154.832 87.3765 155.006 88.1835 155.279 88.9284C155.577 89.6485 155.974 90.2817 156.471 90.8279C156.967 91.3742 157.576 91.8087 158.296 92.1315C159.041 92.4295 159.897 92.5785 160.866 92.5785C161.337 92.5785 161.822 92.5412 162.318 92.4667C162.84 92.3674 163.324 92.2184 163.771 92.0198C164.218 91.7963 164.615 91.5108 164.963 91.1631C165.31 90.8155 165.571 90.3934 165.745 89.8968H168.985C168.762 90.8403 168.377 91.6598 167.831 92.355C167.309 93.0503 166.676 93.6214 165.931 94.0683C165.211 94.5153 164.404 94.8505 163.51 95.0739C162.616 95.2726 161.71 95.3719 160.791 95.3719C159.227 95.3719 157.861 95.1236 156.694 94.627C155.552 94.1304 154.596 93.4475 153.826 92.5785C153.056 91.6846 152.485 90.6293 152.113 89.4126C151.74 88.1711 151.554 86.8178 151.554 85.3528C151.554 83.8878 151.753 82.547 152.15 81.3303C152.572 80.0887 153.168 79.021 153.938 78.1271C154.708 77.2332 155.651 76.538 156.769 76.0414C157.886 75.5448 159.214 75.2965 160.754 75.2965C162.318 75.2965 163.671 75.6068 164.814 76.2276C165.956 76.8484 166.875 77.6678 167.57 78.6858C168.265 79.679 168.749 80.7592 169.022 81.9262C169.32 83.0932 169.445 84.1734 169.395 85.1666C169.395 85.3901 169.382 85.6135 169.358 85.837C169.358 86.0605 169.345 86.284 169.32 86.5074H154.757ZM166.192 83.7512C166.142 82.0876 165.621 80.7343 164.627 79.6915C163.634 78.6486 162.306 78.1271 160.642 78.1271C159.723 78.1271 158.916 78.2761 158.221 78.5741C157.526 78.872 156.942 79.2818 156.471 79.8032C155.999 80.3246 155.626 80.933 155.353 81.6282C155.08 82.2987 154.906 83.0063 154.832 83.7512H166.192Z" fill="#CFF928"/>
<circle cx="28.3827" cy="86.1288" r="3.69132" fill="#CFF928"/>
<circle cx="65.2968" cy="86.1288" r="3.69132" fill="#CFF928"/>
<circle cx="104.66" cy="86.1288" r="3.69132" fill="#CFF928"/>
<circle cx="141.562" cy="86.1288" r="3.69132" fill="#CFF928"/>
</svg>
