<svg width="199" height="124" viewBox="0 0 199 124" fill="none" xmlns="http://www.w3.org/2000/svg">
<path d="M7.91087 61.0933H0V12.8778H7.91087V61.0933Z" fill="black"/>
<path d="M19.1139 61.0933V12.8778V0L43.4602 37.5652L67.3975 1.42077V12.8778V61.0933H59.5548V23.5166L43.4602 68.1972L26.9565 23.5166V61.0933H19.1139Z" fill="black"/>
<path d="M78.5866 12.8778H96.2497C99.023 12.8778 101.501 13.1961 103.683 13.8326C105.911 14.4237 107.798 15.3784 109.344 16.6969C110.935 18.0154 112.14 19.7203 112.958 21.8117C113.822 23.8576 114.254 26.3354 114.254 29.2452C114.254 31.9276 113.799 34.3145 112.89 36.4059C112.026 38.4973 110.776 40.2477 109.139 41.6571C107.548 43.0665 105.638 44.1349 103.41 44.8623C101.183 45.5898 98.7048 45.9535 95.9769 45.9535H86.4975V61.0933H78.5866V12.8778ZM95.5677 38.9974C98.6138 38.9974 101.137 38.2472 103.138 36.7469C105.183 35.2011 106.252 32.8142 106.343 29.5862C106.343 26.1763 105.456 23.7212 103.683 22.2209C101.955 20.7205 99.4095 19.9704 96.0451 19.9704H86.4975V38.9974H95.5677Z" fill="black"/>
<path d="M122.875 12.8778H156.36V19.9704H130.786V33.678H153.427V40.8387H130.786V54.0689H156.36V61.0933H122.875V12.8778Z" fill="black"/>
<path d="M175.196 61.0933V19.9704H159.92V12.8778H198.452V19.9704H183.107V61.0933H175.196Z" fill="black"/>
<path d="M11.0567 90.6582C10.5406 90.6582 10.0102 90.7012 9.46542 90.7872C8.94933 90.8446 8.43325 90.9879 7.91716 91.2173C7.42974 91.418 6.99967 91.7334 6.62694 92.1635C6.28288 92.5649 6.09652 93.1096 6.06785 93.7977C6.06785 94.7726 6.42624 95.5037 7.14303 95.9911C7.88849 96.4785 8.84898 96.8369 10.0245 97.0663C10.5119 97.181 11.0424 97.2956 11.6158 97.4103C12.1892 97.4963 12.7483 97.5967 13.2931 97.7114C13.8665 97.7974 14.3969 97.8977 14.8843 98.0124C15.4004 98.1271 15.8305 98.2418 16.1745 98.3565C18.927 99.2166 20.3032 101.066 20.3032 103.904C20.2746 105.281 19.9735 106.399 19.4001 107.259C18.8553 108.09 18.1529 108.75 17.2927 109.237C16.4613 109.725 15.5008 110.069 14.4112 110.269C13.3504 110.47 12.2896 110.571 11.2287 110.571C10.1965 110.571 9.15003 110.47 8.08919 110.269C7.02834 110.069 6.05351 109.725 5.1647 109.237C4.30455 108.721 3.55909 108.062 2.92832 107.259C2.32622 106.428 1.93915 105.395 1.76713 104.162H5.46575C5.69512 104.851 6.05351 105.395 6.54093 105.797C7.02834 106.198 7.54443 106.514 8.08919 106.743C8.66262 106.972 9.19304 107.13 9.68046 107.216C10.1965 107.302 10.77 107.345 11.4007 107.345C11.8595 107.345 12.3899 107.316 12.992 107.259C13.5941 107.202 14.1675 107.073 14.7123 106.872C15.2571 106.643 15.7158 106.313 16.0885 105.883C16.4613 105.453 16.6476 104.851 16.6476 104.076C16.6476 103.216 16.3609 102.571 15.7875 102.141C15.2427 101.711 14.4829 101.396 13.5081 101.195C12.82 101.052 12.1032 100.923 11.3577 100.808C10.641 100.665 9.90983 100.521 9.16437 100.378C8.44758 100.206 7.74513 100.019 7.05701 99.8187C6.3689 99.5894 5.72379 99.2883 5.12169 98.9156C4.31889 98.4282 3.67378 97.7687 3.18636 96.9373C2.69895 96.1058 2.45524 95.0879 2.45524 93.8837C2.51258 92.6222 2.7993 91.59 3.31539 90.7872C3.83147 89.9557 4.49092 89.282 5.29372 88.7659C6.15386 88.2498 7.07135 87.8914 8.04618 87.6907C9.02101 87.49 10.0532 87.3896 11.1427 87.3896C13.4651 87.3896 15.3144 87.8914 16.6906 88.8949C17.5221 89.4683 18.1672 90.1564 18.626 90.9592C19.0847 91.762 19.3714 92.6079 19.4861 93.4967H16.0885C15.8878 92.6652 15.3431 91.9914 14.4543 91.4753C13.5654 90.9592 12.4329 90.6869 11.0567 90.6582ZM44.2062 118.484V87.6477H47.6898L47.8618 91.0453C48.6359 89.8697 49.6824 88.9809 51.0013 88.3788C52.3489 87.748 53.7968 87.4183 55.3451 87.3896C57.094 87.3896 58.5706 87.6907 59.7748 88.2928C61.0077 88.8662 62.0255 89.6834 62.8283 90.7442C63.6598 91.7764 64.2762 93.0093 64.6776 94.4428C65.079 95.8477 65.2797 97.3673 65.2797 99.0016C65.2797 100.665 65.079 102.198 64.6776 103.603C64.2762 105.008 63.6598 106.227 62.8283 107.259C61.9968 108.291 60.9503 109.108 59.6888 109.71C58.4272 110.284 56.922 110.571 55.173 110.571C53.4527 110.571 51.9905 110.298 50.7863 109.753C49.5821 109.209 48.6073 108.449 47.8618 107.474V118.484H44.2062ZM54.872 107.345C56.1048 107.345 57.137 107.13 57.9685 106.7C58.8286 106.241 59.5168 105.639 60.0328 104.894C60.5776 104.119 60.9647 103.231 61.194 102.227C61.4521 101.224 61.5954 100.148 61.6241 99.0016C61.6241 97.8547 61.4951 96.7796 61.237 95.7761C61.0077 94.7439 60.6206 93.8551 60.0759 93.1096C59.5311 92.3642 58.8143 91.7764 57.9255 91.3463C57.0653 90.8876 56.0188 90.6582 54.786 90.6582C53.3237 90.6582 52.0622 91.0596 51.0013 91.8624C49.9405 92.6365 49.1377 93.6257 48.5929 94.8299C48.2775 95.4893 48.0625 96.1775 47.9478 96.8942C47.8331 97.5824 47.7758 98.2991 47.7758 99.0446C47.7758 99.9048 47.8331 100.708 47.9478 101.453C48.0625 102.17 48.2775 102.858 48.5929 103.517C49.1377 104.607 49.9261 105.524 50.9583 106.27C52.0192 106.987 53.3237 107.345 54.872 107.345ZM104.438 107.431C103.951 108.09 103.392 108.621 102.761 109.022C102.13 109.424 101.471 109.739 100.783 109.968C100.123 110.198 99.4496 110.356 98.7615 110.442C98.1021 110.528 97.4426 110.571 96.7832 110.571C95.7223 110.571 94.7188 110.442 93.7727 110.183C92.8265 109.925 91.9664 109.51 91.1923 108.936C90.4468 108.363 89.8447 107.646 89.3859 106.786C88.9559 105.926 88.7408 104.951 88.7408 103.861C88.7408 102.571 88.9702 101.496 89.429 100.636C89.9164 99.7471 90.5615 99.0303 91.3643 98.4855C92.1671 97.9408 93.0846 97.568 94.1167 97.3673C95.1776 97.138 96.2958 97.0233 97.4713 97.0233H104.137C104.137 95.1023 103.722 93.5827 102.89 92.4645C102.059 91.3176 100.654 90.7155 98.6755 90.6582C97.4713 90.6582 96.4105 90.8589 95.493 91.2603C94.5755 91.6617 93.9447 92.3211 93.6007 93.2386H89.687C89.8877 92.2065 90.2891 91.332 90.8912 90.6152C91.4933 89.8697 92.2101 89.2676 93.0416 88.8089C93.873 88.3215 94.7762 87.9631 95.751 87.7337C96.7258 87.5043 97.7007 87.3896 98.6755 87.3896C100.367 87.3896 101.786 87.6764 102.933 88.2498C104.109 88.7946 105.055 89.5257 105.772 90.4432C106.488 91.332 106.99 92.4215 107.277 93.7117C107.564 95.0019 107.707 96.4498 107.707 98.0554V110.312H104.654L104.438 107.431ZM100.138 100.077C99.4496 100.077 98.6468 100.091 97.7293 100.12C96.8405 100.12 95.9804 100.206 95.1489 100.378C94.3174 100.55 93.6437 100.908 93.1276 101.453C92.6402 101.998 92.3965 102.715 92.3965 103.603C92.3965 104.263 92.5255 104.822 92.7835 105.281C93.0416 105.739 93.3856 106.126 93.8157 106.442C94.2744 106.757 94.7905 106.987 95.364 107.13C95.9374 107.273 96.5251 107.345 97.1272 107.345C99.2776 107.345 100.969 106.829 102.202 105.797C103.464 104.736 104.109 103.202 104.137 101.195V100.077H100.138ZM142.4 110.571C140.594 110.571 139.032 110.284 137.713 109.71C136.394 109.137 135.304 108.334 134.444 107.302C133.584 106.27 132.939 105.051 132.509 103.646C132.079 102.241 131.864 100.708 131.864 99.0446C131.864 97.439 132.093 95.9338 132.552 94.5288C133.01 93.0953 133.684 91.8624 134.573 90.8302C135.462 89.7694 136.58 88.9379 137.928 88.3358C139.275 87.705 140.909 87.3896 142.83 87.3896C143.977 87.3896 144.995 87.5187 145.884 87.7767C146.773 88.0061 147.604 88.3931 148.378 88.9379C149.181 89.454 149.869 90.1421 150.443 91.0023C151.016 91.8624 151.432 92.9089 151.69 94.1418H147.948C147.518 92.8802 146.83 91.9771 145.884 91.4323C144.967 90.8876 143.877 90.6295 142.615 90.6582C141.383 90.6582 140.293 90.9019 139.347 91.3893C138.429 91.8481 137.684 92.4645 137.111 93.2386C136.566 94.0128 136.164 94.9159 135.906 95.9481C135.648 96.9516 135.519 97.9838 135.519 99.0446C135.519 100.163 135.648 101.224 135.906 102.227C136.193 103.231 136.609 104.119 137.154 104.894C137.727 105.639 138.458 106.241 139.347 106.7C140.236 107.13 141.297 107.345 142.529 107.345C143.132 107.345 143.719 107.288 144.293 107.173C144.895 107.058 145.44 106.872 145.927 106.614C146.443 106.327 146.887 105.954 147.26 105.496C147.633 105.037 147.905 104.478 148.077 103.818H151.862C151.633 104.994 151.217 106.012 150.615 106.872C150.041 107.703 149.325 108.406 148.464 108.979C147.604 109.524 146.658 109.925 145.626 110.183C144.594 110.442 143.519 110.571 142.4 110.571ZM178.687 100.335C178.773 101.338 178.974 102.27 179.289 103.13C179.633 103.962 180.092 104.693 180.665 105.324C181.239 105.954 181.941 106.456 182.773 106.829C183.633 107.173 184.622 107.345 185.74 107.345C186.285 107.345 186.844 107.302 187.418 107.216C188.02 107.101 188.579 106.929 189.095 106.7C189.611 106.442 190.07 106.112 190.471 105.711C190.872 105.309 191.174 104.822 191.374 104.248H195.116C194.858 105.338 194.413 106.284 193.783 107.087C193.181 107.89 192.449 108.549 191.589 109.065C190.758 109.581 189.826 109.968 188.794 110.226C187.762 110.456 186.715 110.571 185.654 110.571C183.848 110.571 182.271 110.284 180.923 109.71C179.605 109.137 178.501 108.349 177.612 107.345C176.723 106.313 176.064 105.094 175.634 103.689C175.204 102.256 174.988 100.693 174.988 99.0016C174.988 97.31 175.218 95.7617 175.677 94.3568C176.164 92.9232 176.852 91.6904 177.741 90.6582C178.63 89.626 179.719 88.8232 181.009 88.2498C182.3 87.6764 183.834 87.3896 185.611 87.3896C187.418 87.3896 188.98 87.748 190.299 88.4648C191.618 89.1816 192.679 90.1278 193.482 91.3033C194.284 92.4502 194.843 93.6974 195.159 95.0449C195.503 96.3925 195.646 97.6397 195.589 98.7866C195.589 99.0446 195.575 99.3027 195.546 99.5607C195.546 99.8187 195.532 100.077 195.503 100.335H178.687ZM191.89 97.1523C191.833 95.2313 191.231 93.6687 190.084 92.4645C188.937 91.2603 187.403 90.6582 185.482 90.6582C184.421 90.6582 183.49 90.8302 182.687 91.1743C181.884 91.5183 181.21 91.9914 180.665 92.5935C180.121 93.1956 179.691 93.8981 179.375 94.7009C179.06 95.475 178.859 96.2921 178.773 97.1523H191.89Z" fill="black"/>
<circle cx="32.7701" cy="99.4537" r="4.26232" fill="black"/>
<circle cx="75.3951" cy="99.4537" r="4.26232" fill="black"/>
<circle cx="120.856" cy="99.4537" r="4.26232" fill="black"/>
<circle cx="163.481" cy="99.4537" r="4.26232" fill="black"/>
</svg>
